<?xml version="1.0" encoding="UTF-8"?>
<svg version="1.1" xmlns="http://www.w3.org/2000/svg" width="146" height="81">
<path d="M0 0 C48.18 0 96.36 0 146 0 C146 26.73 146 53.46 146 81 C97.82 81 49.64 81 0 81 C0 54.27 0 27.54 0 0 Z " fill="#FCFCFC" transform="translate(0,0)"/>
<path d="M0 0 C36.63 0 73.26 0 111 0 C111 0.66 111 1.32 111 2 C87.9 2 64.8 2 41 2 C41 2.66 41 3.32 41 4 C41.66 4 42.32 4 43 4 C43 7.3 43 10.6 43 14 C41.68 14.33 40.36 14.66 39 15 C40.98 15 42.96 15 45 15 C44.505 14.505 44.505 14.505 44 14 C43.9020943 12.50261876 43.87025136 11.00057108 43.875 9.5 C43.87113281 8.27796875 43.87113281 8.27796875 43.8671875 7.03125 C44 5 44 5 45 4 C46.99954746 3.95745644 49.00041636 3.95919217 51 4 C51.66 4 52.32 4 53 4 C55.0625 4.375 55.0625 4.375 57 5 C57.495 5.99 57.495 5.99 58 7 C56.68 6.67 55.36 6.34 54 6 C54 6.66 54 7.32 54 8 C54.99 8 55.98 8 57 8 C58.125 12.75 58.125 12.75 57 15 C59.31 15.33 61.62 15.66 64 16 C64 15.34 64 14.68 64 14 C63.34 14 62.68 14 62 14 C62 10.7 62 7.4 62 4 C64.97 4 67.94 4 71 4 C71.99 5.98 71.99 5.98 73 8 C73.33 6.68 73.66 5.36 74 4 C76.97 4 79.94 4 83 4 C83 4.66 83 5.32 83 6 C82.01 6 81.02 6 80 6 C80 8.64 80 11.28 80 14 C79.67 14 79.34 14 79 14 C79 11.36 79 8.72 79 6 C78.01 6 77.02 6 76 6 C75.34 8.64 74.68 11.28 74 14 C73.34 14 72.68 14 72 14 C72 14.66 72 15.32 72 16 C80.415 15.505 80.415 15.505 89 15 C89 11.7 89 8.4 89 5 C89.33 5 89.66 5 90 5 C90 7.31 90 9.62 90 12 C91.65 12 93.3 12 95 12 C95.33 10.02 95.66 8.04 96 6 C95.34 6 94.68 6 94 6 C94 5.34 94 4.68 94 4 C95.77049689 3.94589313 97.54146849 3.90715881 99.3125 3.875 C100.29863281 3.85179688 101.28476563 3.82859375 102.30078125 3.8046875 C105 4 105 4 108 6 C108.25 9.5625 108.25 9.5625 108 13 C107 14 107 14 103.9375 14.0625 C102.968125 14.041875 101.99875 14.02125 101 14 C101 11.36 101 8.72 101 6 C100.01 6 99.02 6 98 6 C98 8.97 98 11.94 98 15 C102.29 15.33 106.58 15.66 111 16 C111 16.66 111 17.32 111 18 C74.37 18 37.74 18 0 18 C0 13.38 0 8.76 0 4 C0.99 4 1.98 4 3 4 C3.33 4.99 3.66 5.98 4 7 C4.33 6.01 4.66 5.02 5 4 C6.32 4 7.64 4 9 4 C9.33 5.32 9.66 6.64 10 8 C10.33 6.02 10.66 4.04 11 2 C7.37 2 3.74 2 0 2 C0 1.34 0 0.68 0 0 Z " fill="#505050" transform="translate(18,63)"/>
<path d="M0 0 C16 0 16 0 21 3.125 C25.02168938 8.01099981 24.63862851 13.1433154 24.28125 19.21875 C24.14203125 20.59546875 24.14203125 20.59546875 24 22 C22.35 22.33 20.7 22.66 19 23 C19.825 23.78375 20.65 24.5675 21.5 25.375 C24.64132688 29.05610418 24.41677566 32.35503149 24.17578125 37.0234375 C24.11777344 37.67570312 24.05976562 38.32796875 24 39 C19.07401309 34.2329159 14.56593705 29.11112356 10 24 C9.67 28.29 9.34 32.58 9 37 C6.03 37 3.06 37 0 37 C0 24.79 0 12.58 0 0 Z " fill="#070707" transform="translate(18,23)"/>
<path d="M0 0 C36.63 0 73.26 0 111 0 C111 0.66 111 1.32 111 2 C87.9 2 64.8 2 41 2 C41 2.66 41 3.32 41 4 C41.66 4 42.32 4 43 4 C43 7.3 43 10.6 43 14 C39.49223216 15.60355101 36.85645121 16.22036864 33 16 C33.99 15.67 34.98 15.34 36 15 C36 11.37 36 7.74 36 4 C35.01 4 34.02 4 33 4 C33 7.3 33 10.6 33 14 C32.67 14 32.34 14 32 14 C32 10.7 32 7.4 32 4 C31.34 4 30.68 4 30 4 C30 5.32 30 6.64 30 8 C29.01 8 28.02 8 27 8 C27 6.68 27 5.36 27 4 C26.34 4 25.68 4 25 4 C25 7.63 25 11.26 25 15 C25.66 15 26.32 15 27 15 C27 13.35 27 11.7 27 10 C27.99 10 28.98 10 30 10 C30 11.65 30 13.3 30 15 C30.66 15.33 31.32 15.66 32 16 C27.7641643 16.02469321 23.52836658 16.04285671 19.29248047 16.05493164 C17.8510668 16.05996474 16.40965824 16.06679173 14.96826172 16.07543945 C12.89809915 16.08754983 10.82800399 16.09323847 8.7578125 16.09765625 C7.5114502 16.10289307 6.26508789 16.10812988 4.98095703 16.11352539 C2 16 2 16 0 15 C0 11.37 0 7.74 0 4 C0.99 4 1.98 4 3 4 C3.33 4.99 3.66 5.98 4 7 C4.33 6.01 4.66 5.02 5 4 C6.32 4 7.64 4 9 4 C9.33 5.32 9.66 6.64 10 8 C10.33 6.02 10.66 4.04 11 2 C7.37 2 3.74 2 0 2 C0 1.34 0 0.68 0 0 Z " fill="#7C7C7C" transform="translate(18,63)"/>
<path d="M0 0 C3.46220206 2.57967997 5.28848637 4.50101219 7.1875 8.375 C7.79916263 12.65663844 7.52869499 14.73052057 5.5 18.5625 C2.44718464 22.27538355 -0.22049528 24.84433176 -4.8125 26.375 C-10.07015945 26.77180449 -13.37352842 26.26998146 -17.8125 23.375 C-21.6018332 19.7540816 -23.72417549 16.6754877 -24.07421875 11.46484375 C-23.56322357 7.38450911 -21.50192873 4.39800128 -18.8125 1.375 C-13.20788369 -2.70108459 -6.17837346 -3.1687366 0 0 Z " fill="#0E0E0E" transform="translate(81.8125,9.625)"/>
<path d="M0 0 C2.31 1.98 4.62 3.96 7 6 C7.66 6.33 8.32 6.66 9 7 C9 9.97 9 12.94 9 16 C10.0725 15.896875 11.145 15.79375 12.25 15.6875 C16 16 16 16 18.25 18.375 C19.11625 19.674375 19.11625 19.674375 20 21 C20.99 21.66 21.98 22.32 23 23 C23.22137393 25.62697064 23.28162025 28.00893964 23.1875 30.625 C23.16719727 31.68460938 23.16719727 31.68460938 23.14648438 32.765625 C23.1111104 34.51074128 23.05730221 36.25546608 23 38 C20.36 38 17.72 38 15 38 C15 33.38 15 28.76 15 24 C12.69 24 10.38 24 8 24 C8 28.62 8 33.24 8 38 C5.36 38 2.72 38 0 38 C0 25.46 0 12.92 0 0 Z " fill="#050505" transform="translate(44,21)"/>
<path d="M0 0 C15.7120136 -1.37289439 15.7120136 -1.37289439 21 3.0625 C25.8116348 8.89766238 24.50588502 15.91760966 24 23 C18.72 23 13.44 23 8 23 C8 22.34 8 21.68 8 21 C7.34 21 6.68 21 6 21 C6 20.34 6 19.68 6 19 C5.071875 18.566875 5.071875 18.566875 4.125 18.125 C2 17 2 17 0 15 C-0.14497985 12.41935871 -0.18677545 9.95056116 -0.125 7.375 C-0.11597656 6.66859375 -0.10695313 5.9621875 -0.09765625 5.234375 C-0.07407603 3.48943902 -0.03820461 1.74467705 0 0 Z " fill="#101010" transform="translate(105,37)"/>
<path d="M0 0 C5.28 0 10.56 0 16 0 C16 0.66 16 1.32 16 2 C16.5775 2.2475 17.155 2.495 17.75 2.75 C20.48698387 4.2705466 22.06173766 5.51256332 24 8 C24.2911521 10.73682971 24.38322418 13.03940039 24.25 15.75 C24.23195313 16.44738281 24.21390625 17.14476563 24.1953125 17.86328125 C24.14838554 19.57611539 24.07664605 21.28823824 24 23 C21.03 23 18.06 23 15 23 C15 18.05 15 13.1 15 8 C13.02 8 11.04 8 9 8 C9 12.95 9 17.9 9 23 C6.03 23 3.06 23 0 23 C0 15.41 0 7.82 0 0 Z " fill="#121212" transform="translate(80,37)"/>
<path d="M0 0 C17.16 0 34.32 0 52 0 C51.34 0.33 50.68 0.66 50 1 C50.02320313 1.61488281 50.04640625 2.22976562 50.0703125 2.86328125 C50.08835938 3.67152344 50.10640625 4.47976562 50.125 5.3125 C50.14820313 6.11300781 50.17140625 6.91351563 50.1953125 7.73828125 C50 10 50 10 48 13 C49.65 13 51.3 13 53 13 C53 13.33 53 13.66 53 14 C45.74 14 38.48 14 31 14 C31 13.34 31 12.68 31 12 C31.66 12 32.32 12 33 12 C33.144375 11.05125 33.28875 10.1025 33.4375 9.125 C34 6 34 6 35 4 C37.31 4 39.62 4 42 4 C42 3.34 42 2.68 42 2 C39.03 2 36.06 2 33 2 C32.67 3.98 32.34 5.96 32 8 C30 5 30 5 30 2 C27.03 2 24.06 2 21 2 C21 5.3 21 8.6 21 12 C21.66 12 22.32 12 23 12 C23 12.66 23 13.32 23 14 C20.36 14 17.72 14 15 14 C15.33 11.36 15.66 8.72 16 6 C15.01 6 14.02 6 13 6 C13 5.34 13 4.68 13 4 C13.99 4 14.98 4 16 4 C12.95086772 2.98888907 12.95086772 2.98888907 10 4 C10 3.34 10 2.68 10 2 C8.02 2.33 6.04 2.66 4 3 C4 5.97 4 8.94 4 12 C5.65 12.33 7.3 12.66 9 13 C9 13.33 9 13.66 9 14 C5.04 14 1.08 14 -3 14 C-2.67 13.34 -2.34 12.68 -2 12 C-0.68 12 0.64 12 2 12 C2 8.7 2 5.4 2 2 C1.34 2 0.68 2 0 2 C0 1.34 0 0.68 0 0 Z " fill="#F8F8F8" transform="translate(59,65)"/>
<path d="M0 0 C0.33 0 0.66 0 1 0 C1.44796936 3.06112396 1.48881708 5.20505506 -0.16015625 7.88671875 C-3.01651838 11.37133444 -5.46987386 14.00558207 -10 15 C-15.23885374 15.47625943 -18.53438069 14.80399352 -23 12 C-23.66 11.01 -24.32 10.02 -25 9 C-23.35 9 -21.7 9 -20 9 C-20.33 7.02 -20.66 5.04 -21 3 C-18.36 3.33 -15.72 3.66 -13 4 C-13 5.32 -13 6.64 -13 8 C-12.01 7.67 -11.02 7.34 -10 7 C-9.26676204 4.98491642 -9.26676204 4.98491642 -9 3 C-5.94736336 2.01879536 -4.05263664 2.01879536 -1 3 C-0.67 2.01 -0.34 1.02 0 0 Z " fill="#080808" transform="translate(87,21)"/>
<path d="M0 0 C2.97 0 5.94 0 9 0 C9 7.59 9 15.18 9 23 C6.03 23 3.06 23 0 23 C0 15.41 0 7.82 0 0 Z " fill="#111111" transform="translate(69,37)"/>
<path d="M0 0 C0.99 0 1.98 0 3 0 C3.33 0.99 3.66 1.98 4 3 C4.33 2.01 4.66 1.02 5 0 C6.32 0 7.64 0 9 0 C10.125 7.75 10.125 7.75 9 10 C9.66 10 10.32 10 11 10 C11 9.34 11 8.68 11 8 C15.16138263 7.91840426 18.9472484 8.01751476 23 9 C23.33 8.34 23.66 7.68 24 7 C22.35 7.33 20.7 7.66 19 8 C19 6.35 19 4.7 19 3 C22 2 22 2 25 3 C25 5.64 25 8.28 25 11 C25.66 11 26.32 11 27 11 C27 9.35 27 7.7 27 6 C27.99 6 28.98 6 30 6 C30 7.65 30 9.3 30 11 C30.66 11.33 31.32 11.66 32 12 C27.7641643 12.02469321 23.52836658 12.04285671 19.29248047 12.05493164 C17.8510668 12.05996474 16.40965824 12.06679173 14.96826172 12.07543945 C12.89809915 12.08754983 10.82800399 12.09323847 8.7578125 12.09765625 C7.5114502 12.10289307 6.26508789 12.10812988 4.98095703 12.11352539 C2 12 2 12 0 11 C0 7.37 0 3.74 0 0 Z " fill="#E5E5E5" transform="translate(18,67)"/>
<path d="M0 0 C0.78552246 0.01047363 1.57104492 0.02094727 2.38037109 0.03173828 C3.23115234 0.03818359 4.08193359 0.04462891 4.95849609 0.05126953 C6.29267578 0.07640625 6.29267578 0.07640625 7.65380859 0.10205078 C8.99958984 0.11558594 8.99958984 0.11558594 10.37255859 0.12939453 C12.59157445 0.15300108 14.81005937 0.18592768 17.02880859 0.22705078 C17.02880859 1.21705078 17.02880859 2.20705078 17.02880859 3.22705078 C18.34880859 3.22705078 19.66880859 3.22705078 21.02880859 3.22705078 C20.69880859 4.54705078 20.36880859 5.86705078 20.02880859 7.22705078 C17.71880859 7.22705078 15.40880859 7.22705078 13.02880859 7.22705078 C12.69880859 8.87705078 12.36880859 10.52705078 12.02880859 12.22705078 C10.70880859 12.22705078 9.38880859 12.22705078 8.02880859 12.22705078 C8.02880859 10.90705078 8.02880859 9.58705078 8.02880859 8.22705078 C5.71880859 8.22705078 3.40880859 8.22705078 1.02880859 8.22705078 C0.69880859 9.54705078 0.36880859 10.86705078 0.02880859 12.22705078 C-2.97119141 11.22705078 -2.97119141 11.22705078 -4.22119141 9.47705078 C-5.16498438 6.64567185 -4.86279366 5.05045792 -3.97119141 2.22705078 C-1.97119141 0.22705078 -1.97119141 0.22705078 0 0 Z " fill="#E9E9E9" transform="translate(65.97119140625,16.77294921875)"/>
<path d="M0 0 C2.97 0 5.94 0 9 0 C9.66 1.32 10.32 2.64 11 4 C11.33 2.68 11.66 1.36 12 0 C14.97 0 17.94 0 21 0 C21 0.66 21 1.32 21 2 C20.01 2 19.02 2 18 2 C18 4.64 18 7.28 18 10 C17.67 10 17.34 10 17 10 C17 7.36 17 4.72 17 2 C16.01 2 15.02 2 14 2 C13.34 4.64 12.68 7.28 12 10 C11.34 10 10.68 10 10 10 C10 10.66 10 11.32 10 12 C7.36 12 4.72 12 2 12 C2 11.34 2 10.68 2 10 C1.34 10 0.68 10 0 10 C0 6.7 0 3.4 0 0 Z " fill="#E6E6E6" transform="translate(80,67)"/>
<path d="M0 0 C1.5159375 0.0309375 1.5159375 0.0309375 3.0625 0.0625 C3.7225 0.0625 4.3825 0.0625 5.0625 0.0625 C7.125 0.4375 7.125 0.4375 9.0625 1.0625 C9.3925 1.7225 9.7225 2.3825 10.0625 3.0625 C8.7425 2.7325 7.4225 2.4025 6.0625 2.0625 C6.0625 2.7225 6.0625 3.3825 6.0625 4.0625 C7.0525 4.0625 8.0425 4.0625 9.0625 4.0625 C9.6875 6.375 9.6875 6.375 10.0625 9.0625 C9.0725 10.5475 9.0725 10.5475 8.0625 12.0625 C6.24956911 11.92212479 4.4371557 11.77505111 2.625 11.625 C1.11099609 11.50318359 1.11099609 11.50318359 -0.43359375 11.37890625 C-2.9375 11.0625 -2.9375 11.0625 -3.9375 10.0625 C-4.0354057 8.56511876 -4.06724864 7.06307108 -4.0625 5.5625 C-4.06507812 4.7478125 -4.06765625 3.933125 -4.0703125 3.09375 C-3.85628183 -0.17966019 -3.33883155 0.07103897 0 0 Z " fill="#D0D0D0" transform="translate(65.9375,66.9375)"/>
<path d="M0 0 C1.77049689 -0.05410687 3.54146849 -0.09284119 5.3125 -0.125 C6.29863281 -0.14820312 7.28476563 -0.17140625 8.30078125 -0.1953125 C11 0 11 0 14 2 C14.25 5.5625 14.25 5.5625 14 9 C13 10 13 10 9.9375 10.0625 C8.968125 10.041875 7.99875 10.02125 7 10 C7 7.36 7 4.72 7 2 C6.01 2 5.02 2 4 2 C4 4.64 4 7.28 4 10 C3.34 10 2.68 10 2 10 C2 7.36 2 4.72 2 2 C1.34 2 0.68 2 0 2 C0 1.34 0 0.68 0 0 Z " fill="#202020" transform="translate(112,67)"/>
<path d="M0 0 C1.65 0 3.3 0 5 0 C5.33 1.98 5.66 3.96 6 6 C6.99 6 7.98 6 9 6 C9 6.99 9 7.98 9 9 C6.00519083 9.8723412 3.36424089 10.10829766 0.25 10.0625 C-0.54921875 10.05347656 -1.3484375 10.04445313 -2.171875 10.03515625 C-2.77515625 10.02355469 -3.3784375 10.01195313 -4 10 C-4 9.34 -4 8.68 -4 8 C-3.34 8 -2.68 8 -2 8 C-1.7834375 6.576875 -1.7834375 6.576875 -1.5625 5.125 C-1 2 -1 2 0 0 Z " fill="#D1D1D1" transform="translate(94,69)"/>
<path d="M0 0 C0.80179688 0.00451172 1.60359375 0.00902344 2.4296875 0.01367188 C4.41149006 0.02546832 6.39325433 0.04340395 8.375 0.0625 C7.29296875 1.58203125 7.29296875 1.58203125 5.375 3.0625 C2.23828125 3.13671875 2.23828125 3.13671875 -1.3125 2.75 C-2.49199219 2.63011719 -3.67148438 2.51023437 -4.88671875 2.38671875 C-5.79035156 2.27972656 -6.69398437 2.17273438 -7.625 2.0625 C-7.625 2.7225 -7.625 3.3825 -7.625 4.0625 C-6.965 4.0625 -6.305 4.0625 -5.625 4.0625 C-5.625 6.3725 -5.625 8.6825 -5.625 11.0625 C-7.275 10.7325 -8.925 10.4025 -10.625 10.0625 C-10.625 7.0925 -10.625 4.1225 -10.625 1.0625 C-7.31505287 -0.59247356 -3.63377 -0.03834335 0 0 Z " fill="#F5F5F5" transform="translate(119.625,64.9375)"/>
<path d="M0 0 C0.99 0 1.98 0 3 0 C3.33 0.99 3.66 1.98 4 3 C4.33 2.01 4.66 1.02 5 0 C5.99 0 6.98 0 8 0 C8 3.63 8 7.26 8 11 C5.36 10.67 2.72 10.34 0 10 C0 6.7 0 3.4 0 0 Z " fill="#474747" transform="translate(18,67)"/>
<path d="M0 0 C0.99 0 1.98 0 3 0 C3 2.64 3 5.28 3 8 C4.98 7.67 6.96 7.34 9 7 C9.33 5.35 9.66 3.7 10 2 C10.33 3.32 10.66 4.64 11 6 C11.66 6 12.32 6 13 6 C12.67 7.32 12.34 8.64 12 10 C7.05 10 2.1 10 -3 10 C-2.01 9.67 -1.02 9.34 0 9 C0 6.03 0 3.06 0 0 Z " fill="#F7F7F7" transform="translate(116,69)"/>
<path d="M0 0 C0.99 0 1.98 0 3 0 C3.33 3.63 3.66 7.26 4 11 C4.66 11 5.32 11 6 11 C6 11.66 6 12.32 6 13 C3.36 13 0.72 13 -2 13 C-1.67 10.36 -1.34 7.72 -1 5 C-1.99 5 -2.98 5 -4 5 C-4 4.34 -4 3.68 -4 3 C-2.68 3.33 -1.36 3.66 0 4 C0 2.68 0 1.36 0 0 Z " fill="#F2F2F2" transform="translate(76,66)"/>
<path d="M0 0 C0.33 0 0.66 0 1 0 C2.125 7.75 2.125 7.75 1 10 C1.66 10 2.32 10 3 10 C3 9.34 3 8.68 3 8 C4.98 8 6.96 8 9 8 C8.67 9.32 8.34 10.64 8 12 C5.70858714 12.05384521 3.41681812 12.09272087 1.125 12.125 C-0.78925781 12.15980469 -0.78925781 12.15980469 -2.7421875 12.1953125 C-6 12 -6 12 -8 10 C-7.34 10 -6.68 10 -6 10 C-5.67 8.68 -5.34 7.36 -5 6 C-5 7.32 -5 8.64 -5 10 C-4.34 10 -3.68 10 -3 10 C-2.67 9.34 -2.34 8.68 -2 8 C-2 8.99 -2 9.98 -2 11 C-1.34 11 -0.68 11 0 11 C0 7.37 0 3.74 0 0 Z " fill="#D1D1D1" transform="translate(26,67)"/>
<path d="M0 0 C0.66 0 1.32 0 2 0 C2.66 1.32 3.32 2.64 4 4 C4.33 2.68 4.66 1.36 5 0 C7.97 0 10.94 0 14 0 C14 0.66 14 1.32 14 2 C13.01 2 12.02 2 11 2 C11 4.64 11 7.28 11 10 C10.67 10 10.34 10 10 10 C10 7.36 10 4.72 10 2 C9.01 2 8.02 2 7 2 C6.34 4.64 5.68 7.28 5 10 C4.01 10 3.02 10 2 10 C1.34 6.7 0.68 3.4 0 0 Z " fill="#222222" transform="translate(87,67)"/>
<path d="M0 0 C3.63 0 7.26 0 11 0 C10.67 0.66 10.34 1.32 10 2 C6.9375 2.625 6.9375 2.625 4 3 C4 5.97 4 8.94 4 12 C5.65 12.33 7.3 12.66 9 13 C9 13.33 9 13.66 9 14 C5.04 14 1.08 14 -3 14 C-2.67 13.34 -2.34 12.68 -2 12 C-0.68 12 0.64 12 2 12 C2 8.7 2 5.4 2 2 C1.34 2 0.68 2 0 2 C0 1.34 0 0.68 0 0 Z " fill="#F2F2F2" transform="translate(59,65)"/>
<path d="M0 0 C6.27 0 12.54 0 19 0 C18.01 0.495 18.01 0.495 17 1 C17.05220703 1.93972656 17.05220703 1.93972656 17.10546875 2.8984375 C17.13253906 3.71570313 17.15960938 4.53296875 17.1875 5.375 C17.23970703 6.59316406 17.23970703 6.59316406 17.29296875 7.8359375 C17.19628906 8.55007812 17.09960938 9.26421875 17 10 C16.01 10.66 15.02 11.32 14 12 C14 8.37 14 4.74 14 1 C12.35 1.33 10.7 1.66 9 2 C7.39696373 2.06371368 5.79162328 2.08644214 4.1875 2.0625 C3.39730469 2.05347656 2.60710937 2.04445313 1.79296875 2.03515625 C1.20128906 2.02355469 0.60960938 2.01195313 0 2 C0 1.34 0 0.68 0 0 Z " fill="#DCDCDC" transform="translate(92,65)"/>
<path d="M0 0 C0.66 0 1.32 0 2 0 C2 1.32 2 2.64 2 4 C2.99 4 3.98 4 5 4 C5 2.68 5 1.36 5 0 C5.66 0 6.32 0 7 0 C7 3.3 7 6.6 7 10 C6.34 10 5.68 10 5 10 C5 8.68 5 7.36 5 6 C4.01 6 3.02 6 2 6 C2 7.65 2 9.3 2 11 C1.34 11 0.68 11 0 11 C0 7.37 0 3.74 0 0 Z " fill="#333333" transform="translate(43,67)"/>
<path d="M0 0 C1.65 0 3.3 0 5 0 C6 1 6 1 6.0625 3.5625 C6.041875 4.366875 6.02125 5.17125 6 6 C4.68 6.33 3.36 6.66 2 7 C2 7.99 2 8.98 2 10 C1.34 10 0.68 10 0 10 C0 6.7 0 3.4 0 0 Z " fill="#262626" transform="translate(80,67)"/>
<path d="M0 0 C0.66 0 1.32 0 2 0 C2.33 0.99 2.66 1.98 3 3 C3.33 2.01 3.66 1.02 4 0 C4.66 0 5.32 0 6 0 C6 3.3 6 6.6 6 10 C5.01 9.67 4.02 9.34 3 9 C2.67 8.34 2.34 7.68 2 7 C1.34 7.99 0.68 8.98 0 10 C0 6.7 0 3.4 0 0 Z " fill="#1B1B1B" transform="translate(55,67)"/>
<path d="M0 0 C1.2065625 0.0309375 1.2065625 0.0309375 2.4375 0.0625 C2.4375 0.7225 2.4375 1.3825 2.4375 2.0625 C1.1175 2.0625 -0.2025 2.0625 -1.5625 2.0625 C-1.5625 2.7225 -1.5625 3.3825 -1.5625 4.0625 C-0.2425 4.0625 1.0775 4.0625 2.4375 4.0625 C2.4375 4.7225 2.4375 5.3825 2.4375 6.0625 C1.1175 6.0625 -0.2025 6.0625 -1.5625 6.0625 C-1.5625 6.7225 -1.5625 7.3825 -1.5625 8.0625 C-0.2425 8.0625 1.0775 8.0625 2.4375 8.0625 C2.4375 8.7225 2.4375 9.3825 2.4375 10.0625 C0.4575 10.0625 -1.5225 10.0625 -3.5625 10.0625 C-3.58939216 8.58343108 -3.60884621 7.10422517 -3.625 5.625 C-3.63660156 4.80128906 -3.64820313 3.97757812 -3.66015625 3.12890625 C-3.51340586 0.02366796 -3.12550237 0.07623177 0 0 Z " fill="#1D1D1D" transform="translate(65.5625,66.9375)"/>
<path d="M0 0 C2.64 0 5.28 0 8 0 C8 3.3 8 6.6 8 10 C7.67 10 7.34 10 7 10 C7 7.36 7 4.72 7 2 C6.01 2 5.02 2 4 2 C4 4.64 4 7.28 4 10 C3.34 10 2.68 10 2 10 C2 7.36 2 4.72 2 2 C1.34 2 0.68 2 0 2 C0 1.34 0 0.68 0 0 Z " fill="#272727" transform="translate(112,67)"/>
<path d="M0 0 C0.66 0 1.32 0 2 0 C4.42857143 6.28571429 4.42857143 6.28571429 3 10 C3 9.34 3 8.68 3 8 C1.68 8 0.36 8 -1 8 C-1 8.66 -1 9.32 -1 10 C-1.66 10 -2.32 10 -3 10 C-1.125 2.25 -1.125 2.25 0 0 Z " fill="#3F3F3F" transform="translate(30,67)"/>
<path d="M0 0 C1.9375 0.375 1.9375 0.375 4 1 C4.33 1.66 4.66 2.32 5 3 C3.68 2.67 2.36 2.34 1 2 C1 2.66 1 3.32 1 4 C1.99 4 2.98 4 4 4 C4.38218767 5.65614657 4.71395102 7.32457024 5 9 C4 10 4 10 1.4375 10.0625 C0.633125 10.041875 -0.17125 10.02125 -1 10 C-0.67 9.01 -0.34 8.02 0 7 C0.66 7 1.32 7 2 7 C1.01 6.34 0.02 5.68 -1 5 C-0.67 3.35 -0.34 1.7 0 0 Z " fill="#1E1E1E" transform="translate(71,67)"/>
<path d="M0 0 C0.99 0 1.98 0 3 0 C3 3.63 3 7.26 3 11 C1.68 11.33 0.36 11.66 -1 12 C-1.66 11.34 -2.32 10.68 -3 10 C-2.01 10 -1.02 10 0 10 C0 6.7 0 3.4 0 0 Z " fill="#818181" transform="translate(51,67)"/>
<path d="M0 0 C1.67542976 0.28604898 3.34385343 0.61781233 5 1 C5 1.66 5 2.32 5 3 C3.68 3 2.36 3 1 3 C0.67 4.65 0.34 6.3 0 8 C1.65 7.67 3.3 7.34 5 7 C4.67 7.99 4.34 8.98 4 10 C-0.875 9.125 -0.875 9.125 -2 8 C-1.28 1.28 -1.28 1.28 0 0 Z " fill="#202020" transform="translate(37,67)"/>
<path d="M0 0 C1.98 0 3.96 0 6 0 C6 1.98 6 3.96 6 6 C4.02 6 2.04 6 0 6 C0 4.02 0 2.04 0 0 Z " fill="#F0F0F0" transform="translate(114,45)"/>
<path d="M0 0 C1.98 0 3.96 0 6 0 C6 1.98 6 3.96 6 6 C4.02 6 2.04 6 0 6 C0 4.02 0 2.04 0 0 Z " fill="#E6E6E6" transform="translate(27,31)"/>
<path d="M0 0 C2.64 0.33 5.28 0.66 8 1 C7.34 3.97 6.68 6.94 6 10 C3.4345406 7.4345406 3.45953913 5.52313332 3 2 C2.34 2 1.68 2 1 2 C0.67 2.66 0.34 3.32 0 4 C0 2.68 0 1.36 0 0 Z " fill="#ECECEC" transform="translate(29,65)"/>
<path d="M0 0 C2.31 0 4.62 0 7 0 C7 2.31 7 4.62 7 7 C3.00003714 5.66667905 2.16217663 3.5042173 0 0 Z " fill="#EBEBEB" transform="translate(36,45)"/>
<path d="M0 0 C0.33 1.32 0.66 2.64 1 4 C1.66 4 2.32 4 3 4 C2.67 5.32 2.34 6.64 2 8 C-0.97 7.67 -3.94 7.34 -7 7 C-7 6.67 -7 6.34 -7 6 C-5.02 5.67 -3.04 5.34 -1 5 C-0.67 3.35 -0.34 1.7 0 0 Z " fill="#C8C8C8" transform="translate(126,71)"/>
<path d="M0 0 C1.89213369 2.38573379 3.02391783 4.07175348 4 7 C4.99 7 5.98 7 7 7 C7 7.66 7 8.32 7 9 C5.02 9 3.04 9 1 9 C-0.61949011 6.42786866 -1.04408751 5.32330841 -0.625 2.25 C-0.41875 1.5075 -0.2125 0.765 0 0 Z " fill="#2B2B2B" transform="translate(60,21)"/>
<path d="M0 0 C0.99 0 1.98 0 3 0 C3 1.65 3 3.3 3 5 C3.66 5.33 4.32 5.66 5 6 C2.03 6 -0.94 6 -4 6 C-3.34 5.34 -2.68 4.68 -2 4 C-1.34 4.33 -0.68 4.66 0 5 C0 3.35 0 1.7 0 0 Z " fill="#F1F1F1" transform="translate(45,73)"/>
<path d="M0 0 C2.64 0 5.28 0 8 0 C8.125 2.875 8.125 2.875 8 6 C7.34 6.66 6.68 7.32 6 8 C6 6.02 6 4.04 6 2 C3.03 1.505 3.03 1.505 0 1 C0 0.67 0 0.34 0 0 Z " fill="#F7F7F7" transform="translate(21,65)"/>
<path d="M0 0 C0.99 0 1.98 0 3 0 C3 3.3 3 6.6 3 10 C-0.16130459 5.78492722 -0.3367697 4.93928888 0 0 Z " fill="#121212" transform="translate(23,67)"/>
<path d="M0 0 C1.98 0 3.96 0 6 0 C6 0.66 6 1.32 6 2 C5.01 2 4.02 2 3 2 C3 4.64 3 7.28 3 10 C2.67 10 2.34 10 2 10 C2 7.36 2 4.72 2 2 C1.34 2 0.68 2 0 2 C0 1.34 0 0.68 0 0 Z " fill="#0E0E0E" transform="translate(95,67)"/>
<path d="M0 0 C-0.33 0.66 -0.66 1.32 -1 2 C-4.63 1.67 -8.26 1.34 -12 1 C-12 0.67 -12 0.34 -12 0 C-7.66726186 -0.92844389 -4.33273814 -0.92844389 0 0 Z " fill="#CACACA" transform="translate(75,77)"/>
<path d="M0 0 C-0.33 1.32 -0.66 2.64 -1 4 C-1 3.34 -1 2.68 -1 2 C-2.32 2 -3.64 2 -5 2 C-5 2.66 -5 3.32 -5 4 C-5.66 4 -6.32 4 -7 4 C-6.67 2.68 -6.34 1.36 -6 0 C-2.25 -1.125 -2.25 -1.125 0 0 Z " fill="#191919" transform="translate(34,73)"/>
<path d="M0 0 C0.99 0 1.98 0 3 0 C3 1.65 3 3.3 3 5 C2.67 5 2.34 5 2 5 C1.67 6.65 1.34 8.3 1 10 C0.67 10 0.34 10 0 10 C0 6.7 0 3.4 0 0 Z " fill="#181818" transform="translate(18,67)"/>
<path d="M0 0 C2.97 0 5.94 0 9 0 C9 1.65 9 3.3 9 5 C8.34 4.34 7.68 3.68 7 3 C4.68234271 2.28072705 2.34904126 1.6090107 0 1 C0 0.67 0 0.34 0 0 Z " fill="#F6F6F6" transform="translate(34,65)"/>
<path d="M0 0 C0.33 1.32 0.66 2.64 1 4 C1.66 4 2.32 4 3 4 C3.33 3.34 3.66 2.68 4 2 C4 2.99 4 3.98 4 5 C4.66 5.33 5.32 5.66 6 6 C3.125 6.125 3.125 6.125 0 6 C-0.66 5.34 -1.32 4.68 -2 4 C-1.34 4 -0.68 4 0 4 C0 2.68 0 1.36 0 0 Z " fill="#DCDCDC" transform="translate(20,73)"/>
<path d="M0 0 C0 1.65 0 3.3 0 5 C-1.32 5.33 -2.64 5.66 -4 6 C-4 4.35 -4 2.7 -4 1 C-1 0 -1 0 0 0 Z " fill="#626262" transform="translate(86,68)"/>
<path d="M0 0 C1.65 0 3.3 0 5 0 C5.33 1.32 5.66 2.64 6 4 C5.21625 3.814375 4.4325 3.62875 3.625 3.4375 C1.02910225 2.74037734 1.02910225 2.74037734 -1 4 C-0.67 2.68 -0.34 1.36 0 0 Z " fill="#E7E7E7" transform="translate(70,65)"/>
<path d="M0 0 C0.99 0.33 1.98 0.66 3 1 C3 2.65 3 4.3 3 6 C2.01 6 1.02 6 0 6 C0 4.02 0 2.04 0 0 Z " fill="#F0F0F0" transform="translate(121,69)"/>
</svg>
